<svg xmlns="http://www.w3.org/2000/svg" viewBox="0 0 64 64" width="64" height="64">
  <defs>
    <linearGradient id="tf-grad" x1="0%" y1="0%" x2="100%" y2="100%">
      <stop offset="0%" style="stop-color:#2563eb"/>
      <stop offset="100%" style="stop-color:#1e3a5f"/>
    </linearGradient>
  </defs>
  <!-- Anvil base -->
  <path d="M14 38 L50 38 L46 44 L18 44 Z" fill="url(#tf-grad)"/>
  <!-- Anvil top -->
  <path d="M10 28 L54 28 L50 38 L14 38 Z" fill="url(#tf-grad)"/>
  <!-- Pen nib in center -->
  <path d="M32 12 L36 24 L32 34 L28 24 Z" fill="#93c5fd"/>
  <circle cx="32" cy="34" r="2" fill="#1e3a5f"/>
  <!-- Spark -->
  <path d="M44 16 L46 20 L50 18 L47 22 L49 26 L44 24 L40 26 L42 22 L38 20 L43 22 Z" fill="#e8a040" opacity="0.9"/>
  <!-- Stand -->
  <rect x="28" y="44" width="8" height="6" fill="url(#tf-grad)"/>
  <rect x="22" y="50" width="20" height="4" rx="2" fill="url(#tf-grad)"/>
</svg>
